<svg width="79" height="98" viewBox="0 0 79 98" fill="none" xmlns="http://www.w3.org/2000/svg">
<g filter="url(#filter0_d_97_720)">
<path d="M2.23909 40.7305C-5.41892 47.021 8.39285 68.1945 16.256 77.995V89.6188L78.4774 91.1572V43.9783C76.4261 42.155 70.9561 38.5083 65.4861 38.5083C58.6486 38.5083 48.7342 -3.37144 30.6148 0.218251C12.4954 3.80795 42.7514 28.9358 27.8798 35.6024C13.0082 42.269 11.8116 32.8674 2.23909 40.7305Z" fill="#FEB05D"/>
<path d="M28.9055 60.5522C30.0641 61.0349 32.9895 61.7108 35.4225 60.5522C37.8555 59.3936 37.6914 56.8834 37.3052 55.7731" stroke="#2B2A2A" stroke-width="0.868934" stroke-linecap="round"/>
<path d="M43.0661 51.5466C44.3767 52.003 47.3904 52.3772 48.9603 50.2227C50.5301 48.0682 50.0064 46.14 49.5483 45.4451" stroke="#2B2A2A" stroke-width="0.868934" stroke-linecap="round"/>
<path d="M29.0767 67.0549C32.7233 67.6247 40.1984 66.9503 45.6576 63.8071C51.2986 60.5593 54.7173 53.3799 55.743 50.0749" stroke="#2B2A2A" stroke-width="1.02563" stroke-linecap="round"/>
</g>
<defs>
<filter id="filter0_d_97_720" x="0" y="0" width="78.4775" height="97.311" filterUnits="userSpaceOnUse" color-interpolation-filters="sRGB">
<feFlood flood-opacity="0" result="BackgroundImageFix"/>
<feColorMatrix in="SourceAlpha" type="matrix" values="0 0 0 0 0 0 0 0 0 0 0 0 0 0 0 0 0 0 127 0" result="hardAlpha"/>
<feOffset dy="6.15376"/>
<feComposite in2="hardAlpha" operator="out"/>
<feColorMatrix type="matrix" values="0 0 0 0 0.168627 0 0 0 0 0.164706 0 0 0 0 0.164706 0 0 0 1 0"/>
<feBlend mode="normal" in2="BackgroundImageFix" result="effect1_dropShadow_97_720"/>
<feBlend mode="normal" in="SourceGraphic" in2="effect1_dropShadow_97_720" result="shape"/>
</filter>
</defs>
</svg>
