<svg width="90" height="65" viewBox="0 0 90 65" fill="none" xmlns="http://www.w3.org/2000/svg">
<g filter="url(#filter0_d_97_293)">
<path d="M3.88099 7.3627C7.35958 6.09776 5.3304 3.67329 3.88099 2.61918C7.30684 0.642707 16.135 -2.12435 24.0409 2.61918C33.9232 8.54858 38.2714 9.73446 38.6667 4.99094C39.062 0.247414 46.1773 -2.12435 58.0361 2.61918C69.8949 7.3627 61.5938 9.73446 74.2431 7.3627C86.8925 4.99094 79.7773 18.0356 71.4761 24.7556C63.1749 31.4756 77.0102 40.5674 79.7773 47.2873C82.5443 54.0073 63.5702 54.0073 61.5938 47.2873C59.6173 40.5674 46.9679 47.6826 42.2244 55.5885C37.4808 63.4944 19.2973 51.2403 26.0173 49.6591C32.7373 48.0779 25.6221 33.0568 20.8786 22.7791C16.1351 12.5015 -0.467237 8.94387 3.88099 7.3627Z" fill="black"/>
<path d="M8.62464 7.3627C12.1032 6.09776 10.0741 3.67329 8.62464 2.61918C12.0505 0.642707 20.8786 -2.12435 28.7845 2.61918C38.6669 8.54858 43.0151 9.73446 43.4104 4.99094C43.8057 0.247414 50.921 -2.12435 62.7798 2.61918C74.6386 7.3627 66.3374 9.73446 78.9868 7.3627C91.6362 4.99094 84.5209 18.0356 76.2197 24.7556C67.9186 31.4756 81.7539 40.5674 84.5209 47.2873C87.288 54.0073 68.3139 54.0073 66.3374 47.2873C64.3609 40.5674 51.7115 47.6826 46.968 55.5885C42.2245 63.4944 24.041 51.2403 30.761 49.6591C37.481 48.0779 30.3658 33.0568 25.6223 22.7791C20.8787 12.5015 4.27642 8.94387 8.62464 7.3627Z" fill="#FFAB52"/>
<path d="M8.62464 7.3627C12.1032 6.09776 10.0741 3.67329 8.62464 2.61918C12.0505 0.642707 20.8786 -2.12435 28.7845 2.61918C38.6669 8.54858 43.0151 9.73446 43.4104 4.99094C43.8057 0.247414 50.921 -2.12435 62.7798 2.61918C74.6386 7.3627 66.3374 9.73446 78.9868 7.3627C91.6362 4.99094 84.5209 18.0356 76.2197 24.7556C67.9186 31.4756 81.7539 40.5674 84.5209 47.2873C87.288 54.0073 68.3139 54.0073 66.3374 47.2873C64.3609 40.5674 51.7115 47.6826 46.968 55.5885C42.2245 63.4944 24.041 51.2403 30.761 49.6591C37.481 48.0779 30.3658 33.0568 25.6223 22.7791C20.8787 12.5015 4.27642 8.94387 8.62464 7.3627Z" fill="#FFAB52"/>
<path d="M43.5115 25.7163C43.8167 26.7392 44.9723 28.6969 47.153 28.3444C49.3338 27.9919 49.8186 25.7631 49.7885 24.6928" stroke="black" stroke-width="1.35981" stroke-linecap="round"/>
<path d="M56.4229 21.4896C57.0288 22.3394 58.6889 23.8378 60.4816 23.0329C62.2742 22.2279 62.2574 19.9916 62.0249 18.9741" stroke="black" stroke-width="1.35981" stroke-linecap="round"/>
<path d="M51.1768 32.3716C51.7047 33.2141 53.6194 34.5134 57.0553 32.9706C60.4912 31.4278 61.8818 29.5608 62.1476 28.8202" stroke="black" stroke-width="1.35981" stroke-linecap="round"/>
</g>
<defs>
<filter id="filter0_d_97_293" x="-2.37182" y="0" width="91.4043" height="64.548" filterUnits="userSpaceOnUse" color-interpolation-filters="sRGB">
<feFlood flood-opacity="0" result="BackgroundImageFix"/>
<feColorMatrix in="SourceAlpha" type="matrix" values="0 0 0 0 0 0 0 0 0 0 0 0 0 0 0 0 0 0 127 0" result="hardAlpha"/>
<feOffset dy="3.16235"/>
<feGaussianBlur stdDeviation="1.58117"/>
<feComposite in2="hardAlpha" operator="out"/>
<feColorMatrix type="matrix" values="0 0 0 0 0 0 0 0 0 0 0 0 0 0 0 0 0 0 0.25 0"/>
<feBlend mode="normal" in2="BackgroundImageFix" result="effect1_dropShadow_97_293"/>
<feBlend mode="normal" in="SourceGraphic" in2="effect1_dropShadow_97_293" result="shape"/>
</filter>
</defs>
</svg>
