<svg width="85" height="79" viewBox="0 0 85 79" fill="none" xmlns="http://www.w3.org/2000/svg">
<g filter="url(#filter0_d_97_286)">
<path d="M34.1407 71.5986C25.2405 73.9834 18.9036 64.1661 18.5151 59.6238C17.7148 50.2667 3.16211 44.1115 3.16211 37.4573C3.16211 28.0093 3.5255 28.3727 5.8875 17.2895C6.55584 14.1534 10.9931 0.410249 15.4264 4.84354C20.968 10.3852 27.5667 11.7479 29.4167 4.84354C31.2667 -2.06077 45.8925 -1.15231 51.8884 4.84354C57.8842 10.8394 42.0443 13.5648 51.8884 17.0169C61.7324 20.4691 73.7309 30.2805 76.8711 41.9997C80.0112 53.7188 74.9204 56.2625 65.2101 53.6607C55.4998 51.0588 45.2659 68.6176 34.1407 71.5986Z" fill="black"/>
<path d="M37.774 71.6272C28.8738 74.012 22.5369 64.1948 22.1484 59.6525C21.3481 50.2953 6.79541 44.1401 6.79541 37.486C6.79541 28.038 7.1588 28.4014 9.5208 17.3181C10.1891 14.1821 14.6264 0.438905 19.0597 4.8722C24.6013 10.4138 31.2 11.7765 33.05 4.8722C34.9 -2.03211 49.5258 -1.12365 55.5217 4.8722C61.5175 10.8681 45.6776 13.5934 55.5217 17.0456C65.3657 20.4978 77.3643 30.3091 80.5044 42.0283C83.6445 53.7475 78.5537 56.2912 68.8434 53.6893C59.1331 51.0874 48.8992 68.6463 37.774 71.6272Z" fill="#FFA2A2"/>
<path d="M33.9647 30.4826C34.3708 31.4945 35.4758 33.3796 36.647 32.8245C37.8181 32.2694 38.4958 30.615 38.6883 29.8573" stroke="black" stroke-width="1.35981" stroke-linecap="round"/>
<path d="M45.2617 29.889C45.2029 30.919 45.4443 32.8696 46.8806 32.4315C48.3169 31.9935 48.8914 30.4763 48.9991 29.7725" stroke="black" stroke-width="1.35981" stroke-linecap="round"/>
<path d="M35.6851 37.7322C36.7279 37.624 38.9369 37.6389 39.4303 38.5635C40.0471 39.7192 39.9703 40.721 41.465 39.8884C42.9597 39.0558 42.443 37.1217 43.8225 37.7918C45.202 38.4619 46.0114 39.7331 46.8202 38.3844C47.629 37.0357 46.319 37.036 48.1375 36.7119" stroke="black" stroke-width="1.35981" stroke-linecap="round"/>
</g>
<defs>
<filter id="filter0_d_97_286" x="-0.000239611" y="0" width="84.5928" height="78.3198" filterUnits="userSpaceOnUse" color-interpolation-filters="sRGB">
<feFlood flood-opacity="0" result="BackgroundImageFix"/>
<feColorMatrix in="SourceAlpha" type="matrix" values="0 0 0 0 0 0 0 0 0 0 0 0 0 0 0 0 0 0 127 0" result="hardAlpha"/>
<feOffset dy="3.16235"/>
<feGaussianBlur stdDeviation="1.58117"/>
<feComposite in2="hardAlpha" operator="out"/>
<feColorMatrix type="matrix" values="0 0 0 0 0 0 0 0 0 0 0 0 0 0 0 0 0 0 0.25 0"/>
<feBlend mode="normal" in2="BackgroundImageFix" result="effect1_dropShadow_97_286"/>
<feBlend mode="normal" in="SourceGraphic" in2="effect1_dropShadow_97_286" result="shape"/>
</filter>
</defs>
</svg>
