<svg width="78" height="76" viewBox="0 0 78 76" fill="none" xmlns="http://www.w3.org/2000/svg">
<g filter="url(#filter0_d_118_588)">
<path d="M77.3064 1.05204H22.1775C23.2363 4.06366 23.7762 8.78248 19.4441 9.67878C13.3423 10.9412 13.5527 11.1516 16.288 23.9865C19.0233 36.8214 14.3943 28.8259 3.6635 48.1835C-7.06732 67.541 7.45084 57.4414 25.546 57.231C43.6411 57.0206 38.3809 56.179 49.1117 67.7515C57.6963 77.0094 71.4851 63.894 77.3064 56.179V1.05204Z" fill="#A9D66A"/>
<path d="M52.2676 40.2537C53.3196 39.6926 56.0549 38.6546 58.5798 38.9913C61.1047 39.3279 61.5957 43.7605 61.5255 45.9348" stroke="#2B2A2A" stroke-width="1.26245" stroke-linecap="round"/>
<path d="M37.5391 30.1542C38.5911 29.5931 41.3264 28.5551 43.8513 28.8917C46.3762 29.2284 46.8672 33.661 46.797 35.8352" stroke="#2B2A2A" stroke-width="1.26245" stroke-linecap="round"/>
<path d="M61.7362 28.1947C59.9189 30.4159 57.1072 30.93 55.424 29.6676C53.976 28.5816 53.2104 25.3052 56.0552 22.9345C58.5801 20.8304 60.2717 21.0219 61.7362 22.3033C63.4195 23.7761 63.6299 25.8802 61.7362 28.1947Z" stroke="#2B2A2A" stroke-width="1.26245" stroke-linecap="round"/>
</g>
<defs>
<filter id="filter0_d_118_588" x="0" y="0" width="77.3062" height="75.1438" filterUnits="userSpaceOnUse" color-interpolation-filters="sRGB">
<feFlood flood-opacity="0" result="BackgroundImageFix"/>
<feColorMatrix in="SourceAlpha" type="matrix" values="0 0 0 0 0 0 0 0 0 0 0 0 0 0 0 0 0 0 127 0" result="hardAlpha"/>
<feOffset dy="4.20817"/>
<feComposite in2="hardAlpha" operator="out"/>
<feColorMatrix type="matrix" values="0 0 0 0 0.168627 0 0 0 0 0.164706 0 0 0 0 0.164706 0 0 0 1 0"/>
<feBlend mode="normal" in2="BackgroundImageFix" result="effect1_dropShadow_118_588"/>
<feBlend mode="normal" in="SourceGraphic" in2="effect1_dropShadow_118_588" result="shape"/>
</filter>
</defs>
</svg>
